<svg width="64" height="64" viewBox="0 0 64 64" fill="none" xmlns="http://www.w3.org/2000/svg" aria-label="Invite and split">
  <defs>
    <linearGradient id="g" x1="6" y1="6" x2="58" y2="58" gradientUnits="userSpaceOnUse">
      <stop stop-color="#FFB547"/>
      <stop offset="1" stop-color="#FF7D00"/>
    </linearGradient>
  </defs>
  <rect width="64" height="64" rx="18" fill="url(#g)"/>
  <circle cx="32" cy="22" r="5" stroke="white" stroke-width="4"/>
  <path d="M22 46v-1c0-5 4.5-9 10-9s10 4 10 9v1" stroke="white" stroke-width="4" stroke-linecap="round" stroke-linejoin="round"/>
  <circle cx="18" cy="28" r="4" stroke="white" stroke-width="3"/>
  <path d="M11 45c0-3.5 2.8-6.3 6.3-6.3 1.8 0 3.5.7 4.7 2" stroke="white" stroke-width="3" stroke-linecap="round"/>
  <circle cx="46" cy="28" r="4" stroke="white" stroke-width="3"/>
  <path d="M53 45c0-3.5-2.8-6.3-6.3-6.3-1.8 0-3.5.7-4.7 2" stroke="white" stroke-width="3" stroke-linecap="round"/>
</svg>
