<svg xmlns="http://www.w3.org/2000/svg" viewBox="0 0 64 64" fill="none" role="img" aria-label="Invite friends with QR code">
  <defs>
    <linearGradient id="bg" x1="7" y1="7" x2="57" y2="57" gradientUnits="userSpaceOnUse">
      <stop stop-color="#4D8BFF"/>
      <stop offset="1" stop-color="#6C5CFF"/>
    </linearGradient>
  </defs>
  <rect width="64" height="64" rx="18" fill="url(#bg)"/>
  <rect x="17" y="17" width="10" height="10" rx="2.5"
        stroke="white" stroke-width="4"/>
  <rect x="20.5" y="20.5" width="3" height="3" rx="1" fill="white"/>
  <rect x="35" y="17" width="10" height="10" rx="2.5"
        stroke="white" stroke-width="4"/>
  <rect x="38.5" y="20.5" width="3" height="3" rx="1" fill="white"/>
  <rect x="17" y="35" width="10" height="10" rx="2.5"
        stroke="white" stroke-width="4"/>
  <rect x="20.5" y="38.5" width="3" height="3" rx="1" fill="white"/>
  <rect x="32" y="32" width="4" height="4" rx="1" fill="white"/>
  <rect x="39" y="32" width="6" height="4" rx="1" fill="white"/>
  <rect x="32" y="39" width="4" height="4" rx="1" fill="white"/>
  <rect x="39" y="39" width="4" height="4" rx="1" fill="white"/>
  <circle cx="46" cy="46" r="8"
        stroke="white" stroke-width="4"/>
  <path d="M46 42.5v7M42.5 46h7"
        stroke="white" stroke-width="4" stroke-linecap="round"/>

</svg>
