<svg xmlns="http://www.w3.org/2000/svg" width="1024" height="1024" viewBox="0 0 1024 1024">
<defs>
  <filter id="sliceShadow" x="-10%" y="-10%" width="120%" height="120%">
    <feDropShadow dx="0" dy="2" stdDeviation="4" flood-color="#000" flood-opacity="0.12"/>
  </filter>
</defs>
<g filter="url(#sliceShadow)">
  <path d="M 499 78 L 498 77 L 479 77 L 478 78 L 466 78 L 465 79 L 457 79 L 456 80 L 436 82 L 435 83 L 425 84 L 395 91 L 355 104 L 340 110 L 331 115 L 329 115 L 292 134 L 255 158 L 228 179 L 208 197 L 177 230 L 151 264 L 134 291 L 118 321 L 118 323 L 112 334 L 112 336 L 103 356 L 90 396 L 90 400 L 88 404 L 88 408 L 85 418 L 85 425 L 88 427 L 108 429 L 115 431 L 137 433 L 138 434 L 159 436 L 160 437 L 166 437 L 174 439 L 181 439 L 182 440 L 188 440 L 196 442 L 203 442 L 204 443 L 218 444 L 219 445 L 225 445 L 233 447 L 240 447 L 241 448 L 247 448 L 255 450 L 262 450 L 263 451 L 277 452 L 278 453 L 299 455 L 300 456 L 306 456 L 314 458 L 321 458 L 329 460 L 336 460 L 337 461 L 343 461 L 344 462 L 350 462 L 358 464 L 373 465 L 374 466 L 380 466 L 388 468 L 395 468 L 396 469 L 402 469 L 410 471 L 417 471 L 425 473 L 432 473 L 433 474 L 440 474 L 448 476 L 455 476 L 456 477 L 497 482 L 499 480 Z" fill="#71c11c"/>
  <path d="M 524 78 L 524 480 L 526 482 L 543 481 L 544 480 L 557 479 L 558 478 L 570 477 L 571 476 L 594 474 L 595 473 L 616 471 L 623 469 L 630 469 L 631 468 L 645 467 L 646 466 L 652 466 L 653 465 L 659 465 L 667 463 L 674 463 L 675 462 L 687 461 L 688 460 L 703 459 L 704 458 L 725 456 L 733 454 L 740 454 L 748 452 L 755 452 L 762 450 L 784 448 L 785 447 L 791 447 L 792 446 L 798 446 L 799 445 L 805 445 L 813 443 L 820 443 L 828 441 L 850 439 L 851 438 L 857 438 L 858 437 L 864 437 L 865 436 L 871 436 L 879 434 L 909 431 L 916 429 L 937 427 L 939 425 L 939 421 L 937 416 L 937 412 L 932 392 L 920 355 L 910 333 L 910 331 L 890 292 L 873 265 L 848 232 L 835 217 L 811 193 L 794 178 L 770 159 L 728 132 L 695 115 L 693 115 L 686 111 L 666 103 L 625 90 L 599 84 L 589 83 L 588 82 L 582 82 L 581 81 L 568 80 L 567 79 L 559 79 L 558 78 L 548 78 L 547 77 L 525 77 Z" fill="#fc990b"/>
  <path d="M 81 455 L 79 457 L 78 475 L 77 476 L 77 529 L 78 530 L 78 542 L 79 543 L 80 560 L 81 561 L 81 567 L 82 568 L 82 573 L 83 574 L 86 594 L 90 610 L 92 614 L 92 617 L 94 621 L 94 624 L 109 666 L 124 698 L 145 734 L 167 765 L 195 798 L 223 825 L 246 844 L 271 862 L 312 886 L 356 906 L 382 915 L 386 915 L 388 912 L 391 898 L 393 894 L 405 845 L 409 834 L 409 830 L 411 826 L 413 815 L 420 793 L 420 789 L 425 774 L 428 759 L 432 748 L 435 733 L 437 729 L 453 665 L 455 661 L 464 624 L 466 620 L 474 586 L 476 582 L 481 560 L 483 556 L 486 541 L 493 518 L 493 511 L 453 506 L 452 505 L 446 505 L 445 504 L 438 504 L 430 502 L 423 502 L 422 501 L 416 501 L 408 499 L 401 499 L 400 498 L 394 498 L 393 497 L 387 497 L 379 495 L 372 495 L 371 494 L 365 494 L 357 492 L 327 489 L 326 488 L 320 488 L 319 487 L 313 487 L 305 485 L 289 484 L 288 483 L 275 482 L 274 481 L 268 481 L 260 479 L 245 478 L 244 477 L 238 477 L 231 475 L 223 475 L 222 474 L 216 474 L 215 473 L 209 473 L 201 471 L 194 471 L 186 469 L 178 469 L 177 468 L 171 468 L 163 466 L 156 466 L 155 465 L 149 465 L 148 464 L 142 464 L 134 462 L 104 459 L 103 458 Z" fill="#bf70fa"/>
  <path d="M 944 457 L 943 456 L 926 457 L 925 458 L 904 460 L 903 461 L 897 461 L 889 463 L 882 463 L 881 464 L 875 464 L 874 465 L 868 465 L 860 467 L 845 468 L 838 470 L 830 470 L 829 471 L 808 473 L 800 475 L 793 475 L 792 476 L 786 476 L 778 478 L 771 478 L 770 479 L 764 479 L 763 480 L 757 480 L 756 481 L 750 481 L 742 483 L 704 487 L 703 488 L 697 488 L 696 489 L 690 489 L 689 490 L 683 490 L 675 492 L 668 492 L 660 494 L 653 494 L 652 495 L 646 495 L 645 496 L 639 496 L 631 498 L 624 498 L 616 500 L 609 500 L 601 502 L 594 502 L 586 504 L 571 505 L 570 506 L 556 507 L 555 508 L 523 512 L 521 514 L 519 520 L 516 535 L 509 557 L 506 572 L 500 591 L 500 595 L 496 606 L 485 651 L 483 655 L 470 707 L 468 711 L 466 722 L 461 737 L 458 752 L 456 756 L 454 767 L 452 771 L 450 782 L 443 804 L 438 827 L 436 831 L 435 838 L 428 860 L 419 898 L 413 916 L 413 923 L 439 929 L 468 932 L 469 933 L 500 934 L 501 935 L 521 935 L 522 934 L 539 934 L 540 933 L 551 933 L 552 932 L 568 931 L 569 930 L 587 928 L 588 927 L 592 927 L 593 926 L 597 926 L 598 925 L 619 921 L 666 906 L 711 886 L 739 870 L 762 855 L 800 825 L 838 787 L 866 752 L 867 749 L 882 728 L 898 700 L 918 656 L 931 617 L 937 593 L 939 577 L 941 571 L 942 558 L 943 557 L 944 539 L 945 538 L 945 526 L 946 525 L 946 478 L 945 477 Z" fill="#fb373c"/>
</g>
<path d="M 326 160 L 323 162 L 323 182 L 321 184 L 314 184 L 296 189 L 280 198 L 268 210 L 263 218 L 258 235 L 259 254 L 262 263 L 268 274 L 278 284 L 287 290 L 298 295 L 311 299 L 326 301 L 332 303 L 345 304 L 368 309 L 376 313 L 379 316 L 380 325 L 376 330 L 363 335 L 358 336 L 333 335 L 318 331 L 308 326 L 296 317 L 288 309 L 251 333 L 250 337 L 258 348 L 272 362 L 282 369 L 292 374 L 304 378 L 322 380 L 323 381 L 323 405 L 325 407 L 361 407 L 362 406 L 363 382 L 364 381 L 384 378 L 401 372 L 417 362 L 426 353 L 434 339 L 437 327 L 437 310 L 435 300 L 431 291 L 425 282 L 411 270 L 401 265 L 382 259 L 372 258 L 366 256 L 360 256 L 359 255 L 352 255 L 347 253 L 327 250 L 319 246 L 314 241 L 314 234 L 318 229 L 326 225 L 349 224 L 350 225 L 361 226 L 370 229 L 381 235 L 390 243 L 392 243 L 424 222 L 428 217 L 416 203 L 404 194 L 385 186 L 364 183 L 362 181 L 362 174 L 363 173 L 363 166 L 362 165 L 363 163 L 362 161 L 360 160 Z" fill="#ffffff" fill-rule="evenodd"/>
<path d="M 577 243 L 575 250 L 575 270 L 577 272 L 597 272 L 599 274 L 599 285 L 598 286 L 579 286 L 577 288 L 576 298 L 575 299 L 575 314 L 577 316 L 604 316 L 606 319 L 608 327 L 619 346 L 630 358 L 646 370 L 658 376 L 682 383 L 715 385 L 716 384 L 733 383 L 754 378 L 781 367 L 775 337 L 771 324 L 769 324 L 752 333 L 740 337 L 732 338 L 727 340 L 707 341 L 706 340 L 695 340 L 681 336 L 671 331 L 663 325 L 657 318 L 658 316 L 724 316 L 726 314 L 728 306 L 728 301 L 730 294 L 730 287 L 729 286 L 646 286 L 645 285 L 645 273 L 646 272 L 730 272 L 732 269 L 736 249 L 736 244 L 734 242 L 658 242 L 657 239 L 663 230 L 674 220 L 693 212 L 707 211 L 708 210 L 724 211 L 725 212 L 736 213 L 739 215 L 742 215 L 757 221 L 761 212 L 762 205 L 769 184 L 767 182 L 753 176 L 725 170 L 691 170 L 671 174 L 647 184 L 634 193 L 621 206 L 614 216 L 607 230 L 605 239 L 603 242 L 579 242 Z" fill="#ffffff" fill-rule="evenodd"/>
<path d="M 208 534 L 264 627 L 262 629 L 260 628 L 257 629 L 224 629 L 221 634 L 222 639 L 221 656 L 222 659 L 225 661 L 266 661 L 267 660 L 276 661 L 279 660 L 281 662 L 281 680 L 280 681 L 225 681 L 222 683 L 222 698 L 221 699 L 221 709 L 224 713 L 280 713 L 281 714 L 281 765 L 283 767 L 325 767 L 327 764 L 327 714 L 328 713 L 386 713 L 388 711 L 388 683 L 386 681 L 328 681 L 327 680 L 327 662 L 328 661 L 385 661 L 388 658 L 388 631 L 386 629 L 365 629 L 364 628 L 361 629 L 345 629 L 344 627 L 365 589 L 370 582 L 374 573 L 392 544 L 396 534 L 347 534 L 345 536 L 305 618 L 302 615 L 286 582 L 284 580 L 275 561 L 260 534 Z" fill="#ffffff" fill-rule="evenodd"/>
<path d="M 776 540 L 765 535 L 743 529 L 725 528 L 724 527 L 697 528 L 687 531 L 683 531 L 661 540 L 650 548 L 639 560 L 632 574 L 628 593 L 629 614 L 635 633 L 634 634 L 601 634 L 597 638 L 597 667 L 599 671 L 601 672 L 627 672 L 628 671 L 639 672 L 640 671 L 642 673 L 643 678 L 643 689 L 642 690 L 641 702 L 636 713 L 632 718 L 621 726 L 610 729 L 601 729 L 598 731 L 598 751 L 597 752 L 598 766 L 597 767 L 597 773 L 601 778 L 603 779 L 791 779 L 795 776 L 795 740 L 796 739 L 795 734 L 796 731 L 793 727 L 702 727 L 701 726 L 692 727 L 690 725 L 693 719 L 696 706 L 696 692 L 697 691 L 696 673 L 698 671 L 699 672 L 748 672 L 752 669 L 753 665 L 753 639 L 751 635 L 749 634 L 688 634 L 686 631 L 682 613 L 682 601 L 685 591 L 688 586 L 696 578 L 709 572 L 733 571 L 747 574 L 750 576 L 765 580 L 767 578 L 774 551 L 777 544 Z" fill="#ffffff" fill-rule="evenodd"/>
</svg>